<svg width="819" height="20" viewBox="0 0 819 20" fill="none" xmlns="http://www.w3.org/2000/svg">
<rect width="819" height="20" fill="url(#paint0_linear_1_121)"/>
<mask id="path-1-outside-1_1_121" maskUnits="userSpaceOnUse" x="2" y="4" width="77" height="11" fill="black">
<rect fill="white" x="2" y="4" width="77" height="11"/>
<path d="M4.375 14.625V13.25H3V5H5.75V10.5H7.125V5H8.5V10.5H9.875V5H12.625V13.25H11.25V14.625H9.875V13.25H8.5V11.875H7.125V13.25H5.75V14.625H4.375ZM15.375 14.625V13.25H14V9.125H15.375V7.75H22.25V9.125H23.625V11.875H16.75V13.25H22.25V14.625H15.375ZM16.75 10.5H20.875V9.125H16.75V10.5ZM26.375 14.625V13.25H29.125V6.375H27.75V5H31.875V13.25H34.625V14.625H26.375ZM37.375 14.625V13.25H36V9.125H37.375V7.75H45.625V9.125H38.75V13.25H45.625V14.625H37.375ZM48.375 14.625V13.25H47V9.125H48.375V7.75H55.25V9.125H56.625V13.25H55.25V14.625H48.375ZM49.75 13.25H53.875V9.125H49.75V13.25ZM58 14.625V7.75H66.25V9.125H67.625V14.625H64.875V9.125H63.5V14.625H60.75V9.125H59.375V14.625H58ZM70.375 14.625V13.25H69V9.125H70.375V7.75H77.25V9.125H78.625V11.875H71.75V13.25H77.25V14.625H70.375ZM71.75 10.5H75.875V9.125H71.75V10.5Z"/>
</mask>
<path d="M4.375 14.625V13.25H3V5H5.75V10.5H7.125V5H8.5V10.5H9.875V5H12.625V13.25H11.25V14.625H9.875V13.25H8.5V11.875H7.125V13.25H5.75V14.625H4.375ZM15.375 14.625V13.25H14V9.125H15.375V7.75H22.25V9.125H23.625V11.875H16.75V13.25H22.25V14.625H15.375ZM16.75 10.5H20.875V9.125H16.75V10.5ZM26.375 14.625V13.25H29.125V6.375H27.75V5H31.875V13.25H34.625V14.625H26.375ZM37.375 14.625V13.25H36V9.125H37.375V7.75H45.625V9.125H38.75V13.25H45.625V14.625H37.375ZM48.375 14.625V13.25H47V9.125H48.375V7.75H55.25V9.125H56.625V13.25H55.25V14.625H48.375ZM49.75 13.25H53.875V9.125H49.75V13.25ZM58 14.625V7.75H66.25V9.125H67.625V14.625H64.875V9.125H63.5V14.625H60.75V9.125H59.375V14.625H58ZM70.375 14.625V13.25H69V9.125H70.375V7.75H77.25V9.125H78.625V11.875H71.75V13.25H77.25V14.625H70.375ZM71.75 10.5H75.875V9.125H71.75V10.5Z" fill="white"/>
<path d="M4.375 14.625H4.075V14.925H4.375V14.625ZM4.375 13.25H4.675V12.95H4.375V13.25ZM3 13.25H2.7V13.55H3V13.25ZM3 5V4.7H2.7V5H3ZM5.75 5H6.05V4.7H5.75V5ZM5.75 10.5H5.45V10.8H5.75V10.5ZM7.125 10.5V10.8H7.425V10.5H7.125ZM7.125 5V4.7H6.825V5H7.125ZM8.5 5H8.8V4.7H8.5V5ZM8.5 10.5H8.2V10.8H8.5V10.5ZM9.875 10.5V10.8H10.175V10.5H9.875ZM9.875 5V4.7H9.575V5H9.875ZM12.625 5H12.925V4.7H12.625V5ZM12.625 13.25V13.55H12.925V13.25H12.625ZM11.25 13.25V12.95H10.95V13.25H11.25ZM11.25 14.625V14.925H11.55V14.625H11.25ZM9.875 14.625H9.575V14.925H9.875V14.625ZM9.875 13.25H10.175V12.95H9.875V13.25ZM8.5 13.25H8.2V13.55H8.5V13.25ZM8.5 11.875H8.8V11.575H8.5V11.875ZM7.125 11.875V11.575H6.825V11.875H7.125ZM7.125 13.25V13.55H7.425V13.25H7.125ZM5.75 13.25V12.95H5.45V13.25H5.75ZM5.75 14.625V14.925H6.05V14.625H5.75ZM4.375 14.625H4.675V13.25H4.375H4.075V14.625H4.375ZM4.375 13.25V12.95H3V13.25V13.55H4.375V13.25ZM3 13.25H3.3V5H3H2.7V13.25H3ZM3 5V5.3H5.75V5V4.7H3V5ZM5.75 5H5.45V10.5H5.75H6.05V5H5.75ZM5.75 10.5V10.8H7.125V10.5V10.2H5.75V10.5ZM7.125 10.5H7.425V5H7.125H6.825V10.5H7.125ZM7.125 5V5.3H8.5V5V4.7H7.125V5ZM8.5 5H8.2V10.5H8.5H8.8V5H8.5ZM8.5 10.5V10.8H9.875V10.5V10.2H8.5V10.5ZM9.875 10.5H10.175V5H9.875H9.575V10.5H9.875ZM9.875 5V5.3H12.625V5V4.7H9.875V5ZM12.625 5H12.325V13.25H12.625H12.925V5H12.625ZM12.625 13.25V12.95H11.25V13.25V13.55H12.625V13.25ZM11.25 13.25H10.95V14.625H11.25H11.55V13.25H11.25ZM11.25 14.625V14.325H9.875V14.625V14.925H11.25V14.625ZM9.875 14.625H10.175V13.25H9.875H9.575V14.625H9.875ZM9.875 13.25V12.95H8.5V13.25V13.55H9.875V13.25ZM8.5 13.25H8.8V11.875H8.5H8.2V13.25H8.5ZM8.5 11.875V11.575H7.125V11.875V12.175H8.5V11.875ZM7.125 11.875H6.825V13.25H7.125H7.425V11.875H7.125ZM7.125 13.25V12.95H5.75V13.25V13.55H7.125V13.25ZM5.75 13.25H5.45V14.625H5.75H6.05V13.25H5.75ZM5.75 14.625V14.325H4.375V14.625V14.925H5.75V14.625ZM15.375 14.625H15.075V14.925H15.375V14.625ZM15.375 13.25H15.675V12.95H15.375V13.25ZM14 13.25H13.7V13.55H14V13.25ZM14 9.125V8.825H13.7V9.125H14ZM15.375 9.125V9.425H15.675V9.125H15.375ZM15.375 7.75V7.45H15.075V7.75H15.375ZM22.25 7.75H22.55V7.45H22.25V7.75ZM22.25 9.125H21.95V9.425H22.25V9.125ZM23.625 9.125H23.925V8.825H23.625V9.125ZM23.625 11.875V12.175H23.925V11.875H23.625ZM16.75 11.875V11.575H16.45V11.875H16.75ZM16.75 13.25H16.45V13.55H16.75V13.25ZM22.25 13.25H22.55V12.95H22.25V13.25ZM22.25 14.625V14.925H22.55V14.625H22.25ZM16.75 10.5H16.45V10.8H16.75V10.5ZM20.875 10.5V10.8H21.175V10.5H20.875ZM20.875 9.125H21.175V8.825H20.875V9.125ZM16.75 9.125V8.825H16.45V9.125H16.75ZM15.375 14.625H15.675V13.25H15.375H15.075V14.625H15.375ZM15.375 13.25V12.95H14V13.25V13.55H15.375V13.25ZM14 13.25H14.3V9.125H14H13.7V13.25H14ZM14 9.125V9.425H15.375V9.125V8.825H14V9.125ZM15.375 9.125H15.675V7.75H15.375H15.075V9.125H15.375ZM15.375 7.75V8.05H22.25V7.75V7.45H15.375V7.75ZM22.25 7.75H21.95V9.125H22.25H22.55V7.75H22.25ZM22.25 9.125V9.425H23.625V9.125V8.825H22.25V9.125ZM23.625 9.125H23.325V11.875H23.625H23.925V9.125H23.625ZM23.625 11.875V11.575H16.75V11.875V12.175H23.625V11.875ZM16.75 11.875H16.45V13.25H16.75H17.05V11.875H16.75ZM16.75 13.25V13.55H22.25V13.25V12.95H16.75V13.25ZM22.25 13.25H21.95V14.625H22.25H22.55V13.25H22.25ZM22.25 14.625V14.325H15.375V14.625V14.925H22.25V14.625ZM16.75 10.5V10.8H20.875V10.5V10.2H16.75V10.5ZM20.875 10.5H21.175V9.125H20.875H20.575V10.5H20.875ZM20.875 9.125V8.825H16.75V9.125V9.425H20.875V9.125ZM16.75 9.125H16.45V10.5H16.75H17.05V9.125H16.75ZM26.375 14.625H26.075V14.925H26.375V14.625ZM26.375 13.25V12.95H26.075V13.25H26.375ZM29.125 13.25V13.55H29.425V13.25H29.125ZM29.125 6.375H29.425V6.075H29.125V6.375ZM27.75 6.375H27.45V6.675H27.75V6.375ZM27.75 5V4.7H27.45V5H27.75ZM31.875 5H32.175V4.7H31.875V5ZM31.875 13.25H31.575V13.55H31.875V13.25ZM34.625 13.25H34.925V12.95H34.625V13.25ZM34.625 14.625V14.925H34.925V14.625H34.625ZM26.375 14.625H26.675V13.25H26.375H26.075V14.625H26.375ZM26.375 13.25V13.55H29.125V13.25V12.95H26.375V13.25ZM29.125 13.25H29.425V6.375H29.125H28.825V13.25H29.125ZM29.125 6.375V6.075H27.75V6.375V6.675H29.125V6.375ZM27.75 6.375H28.05V5H27.75H27.45V6.375H27.75ZM27.75 5V5.3H31.875V5V4.7H27.75V5ZM31.875 5H31.575V13.25H31.875H32.175V5H31.875ZM31.875 13.25V13.55H34.625V13.25V12.95H31.875V13.25ZM34.625 13.25H34.325V14.625H34.625H34.925V13.25H34.625ZM34.625 14.625V14.325H26.375V14.625V14.925H34.625V14.625ZM37.375 14.625H37.075V14.925H37.375V14.625ZM37.375 13.25H37.675V12.95H37.375V13.25ZM36 13.25H35.7V13.55H36V13.25ZM36 9.125V8.825H35.7V9.125H36ZM37.375 9.125V9.425H37.675V9.125H37.375ZM37.375 7.75V7.45H37.075V7.75H37.375ZM45.625 7.75H45.925V7.45H45.625V7.75ZM45.625 9.125V9.425H45.925V9.125H45.625ZM38.75 9.125V8.825H38.45V9.125H38.75ZM38.75 13.25H38.45V13.55H38.75V13.25ZM45.625 13.25H45.925V12.95H45.625V13.25ZM45.625 14.625V14.925H45.925V14.625H45.625ZM37.375 14.625H37.675V13.25H37.375H37.075V14.625H37.375ZM37.375 13.25V12.95H36V13.25V13.55H37.375V13.25ZM36 13.25H36.3V9.125H36H35.7V13.25H36ZM36 9.125V9.425H37.375V9.125V8.825H36V9.125ZM37.375 9.125H37.675V7.75H37.375H37.075V9.125H37.375ZM37.375 7.75V8.05H45.625V7.75V7.45H37.375V7.75ZM45.625 7.75H45.325V9.125H45.625H45.925V7.75H45.625ZM45.625 9.125V8.825H38.75V9.125V9.425H45.625V9.125ZM38.75 9.125H38.45V13.25H38.75H39.05V9.125H38.75ZM38.75 13.25V13.55H45.625V13.25V12.95H38.75V13.25ZM45.625 13.25H45.325V14.625H45.625H45.925V13.25H45.625ZM45.625 14.625V14.325H37.375V14.625V14.925H45.625V14.625ZM48.375 14.625H48.075V14.925H48.375V14.625ZM48.375 13.25H48.675V12.95H48.375V13.25ZM47 13.25H46.7V13.55H47V13.25ZM47 9.125V8.825H46.7V9.125H47ZM48.375 9.125V9.425H48.675V9.125H48.375ZM48.375 7.75V7.45H48.075V7.75H48.375ZM55.25 7.75H55.55V7.45H55.25V7.75ZM55.25 9.125H54.95V9.425H55.25V9.125ZM56.625 9.125H56.925V8.825H56.625V9.125ZM56.625 13.25V13.55H56.925V13.25H56.625ZM55.25 13.25V12.95H54.95V13.25H55.25ZM55.25 14.625V14.925H55.55V14.625H55.25ZM49.75 13.25H49.45V13.55H49.75V13.25ZM53.875 13.25V13.55H54.175V13.25H53.875ZM53.875 9.125H54.175V8.825H53.875V9.125ZM49.75 9.125V8.825H49.45V9.125H49.75ZM48.375 14.625H48.675V13.25H48.375H48.075V14.625H48.375ZM48.375 13.25V12.95H47V13.25V13.55H48.375V13.25ZM47 13.25H47.3V9.125H47H46.7V13.25H47ZM47 9.125V9.425H48.375V9.125V8.825H47V9.125ZM48.375 9.125H48.675V7.75H48.375H48.075V9.125H48.375ZM48.375 7.75V8.05H55.25V7.75V7.45H48.375V7.75ZM55.25 7.75H54.95V9.125H55.25H55.55V7.75H55.25ZM55.25 9.125V9.425H56.625V9.125V8.825H55.25V9.125ZM56.625 9.125H56.325V13.25H56.625H56.925V9.125H56.625ZM56.625 13.25V12.95H55.25V13.25V13.55H56.625V13.25ZM55.25 13.25H54.95V14.625H55.25H55.55V13.25H55.25ZM55.25 14.625V14.325H48.375V14.625V14.925H55.25V14.625ZM49.75 13.25V13.55H53.875V13.25V12.95H49.75V13.25ZM53.875 13.25H54.175V9.125H53.875H53.575V13.25H53.875ZM53.875 9.125V8.825H49.75V9.125V9.425H53.875V9.125ZM49.75 9.125H49.45V13.25H49.75H50.05V9.125H49.75ZM58 14.625H57.7V14.925H58V14.625ZM58 7.75V7.45H57.7V7.75H58ZM66.25 7.75H66.55V7.45H66.25V7.75ZM66.25 9.125H65.95V9.425H66.25V9.125ZM67.625 9.125H67.925V8.825H67.625V9.125ZM67.625 14.625V14.925H67.925V14.625H67.625ZM64.875 14.625H64.575V14.925H64.875V14.625ZM64.875 9.125H65.175V8.825H64.875V9.125ZM63.5 9.125V8.825H63.2V9.125H63.5ZM63.5 14.625V14.925H63.8V14.625H63.5ZM60.75 14.625H60.45V14.925H60.75V14.625ZM60.75 9.125H61.05V8.825H60.75V9.125ZM59.375 9.125V8.825H59.075V9.125H59.375ZM59.375 14.625V14.925H59.675V14.625H59.375ZM58 14.625H58.3V7.75H58H57.7V14.625H58ZM58 7.75V8.05H66.25V7.75V7.45H58V7.75ZM66.25 7.75H65.95V9.125H66.25H66.55V7.75H66.25ZM66.25 9.125V9.425H67.625V9.125V8.825H66.25V9.125ZM67.625 9.125H67.325V14.625H67.625H67.925V9.125H67.625ZM67.625 14.625V14.325H64.875V14.625V14.925H67.625V14.625ZM64.875 14.625H65.175V9.125H64.875H64.575V14.625H64.875ZM64.875 9.125V8.825H63.5V9.125V9.425H64.875V9.125ZM63.5 9.125H63.2V14.625H63.5H63.8V9.125H63.5ZM63.5 14.625V14.325H60.75V14.625V14.925H63.5V14.625ZM60.75 14.625H61.05V9.125H60.75H60.45V14.625H60.75ZM60.75 9.125V8.825H59.375V9.125V9.425H60.75V9.125ZM59.375 9.125H59.075V14.625H59.375H59.675V9.125H59.375ZM59.375 14.625V14.325H58V14.625V14.925H59.375V14.625ZM70.375 14.625H70.075V14.925H70.375V14.625ZM70.375 13.25H70.675V12.95H70.375V13.25ZM69 13.25H68.7V13.55H69V13.25ZM69 9.125V8.825H68.7V9.125H69ZM70.375 9.125V9.425H70.675V9.125H70.375ZM70.375 7.75V7.45H70.075V7.75H70.375ZM77.25 7.75H77.55V7.45H77.25V7.75ZM77.25 9.125H76.95V9.425H77.25V9.125ZM78.625 9.125H78.925V8.825H78.625V9.125ZM78.625 11.875V12.175H78.925V11.875H78.625ZM71.75 11.875V11.575H71.45V11.875H71.75ZM71.75 13.25H71.45V13.55H71.75V13.25ZM77.25 13.25H77.55V12.95H77.25V13.25ZM77.25 14.625V14.925H77.55V14.625H77.25ZM71.75 10.5H71.45V10.8H71.75V10.5ZM75.875 10.5V10.8H76.175V10.5H75.875ZM75.875 9.125H76.175V8.825H75.875V9.125ZM71.75 9.125V8.825H71.45V9.125H71.75ZM70.375 14.625H70.675V13.25H70.375H70.075V14.625H70.375ZM70.375 13.25V12.95H69V13.25V13.55H70.375V13.25ZM69 13.25H69.3V9.125H69H68.7V13.25H69ZM69 9.125V9.425H70.375V9.125V8.825H69V9.125ZM70.375 9.125H70.675V7.75H70.375H70.075V9.125H70.375ZM70.375 7.75V8.05H77.25V7.75V7.45H70.375V7.75ZM77.25 7.75H76.95V9.125H77.25H77.55V7.75H77.25ZM77.25 9.125V9.425H78.625V9.125V8.825H77.25V9.125ZM78.625 9.125H78.325V11.875H78.625H78.925V9.125H78.625ZM78.625 11.875V11.575H71.75V11.875V12.175H78.625V11.875ZM71.75 11.875H71.45V13.25H71.75H72.05V11.875H71.75ZM71.75 13.25V13.55H77.25V13.25V12.95H71.75V13.25ZM77.25 13.25H76.95V14.625H77.25H77.55V13.25H77.25ZM77.25 14.625V14.325H70.375V14.625V14.925H77.25V14.625ZM71.75 10.5V10.8H75.875V10.5V10.2H71.75V10.5ZM75.875 10.5H76.175V9.125H75.875H75.575V10.5H75.875ZM75.875 9.125V8.825H71.75V9.125V9.425H75.875V9.125ZM71.75 9.125H71.45V10.5H71.75H72.05V9.125H71.75Z" fill="white" mask="url(#path-1-outside-1_1_121)"/>
<g filter="url(#filter0_iiii_1_121)">
<rect width="16" height="14" transform="translate(767 3)" fill="#C0C0C0"/>
<g clip-path="url(#clip0_1_121)">
<path d="M771 12H777V14H771V12Z" fill="black"/>
</g>
</g>
<g filter="url(#filter1_iiii_1_121)">
<rect width="16" height="14" transform="translate(783 3)" fill="#C0C0C0"/>
<g clip-path="url(#clip1_1_121)">
<path fill-rule="evenodd" clip-rule="evenodd" d="M795 5H786V14H795V5ZM794 7H787V13H794V7Z" fill="black"/>
</g>
</g>
<g filter="url(#filter2_iiii_1_121)">
<rect width="16" height="14" transform="translate(801 3)" fill="#C0C0C0"/>
<g clip-path="url(#clip2_1_121)">
<path fill-rule="evenodd" clip-rule="evenodd" d="M805 6H807V7H808V8H810V7H811V6H813V7H812V8H811V9H810V10H811V11H812V12H813V13H811V12H810V11H808V12H807V13H805V12H806V11H807V10H808V9H807V8H806V7H805V6Z" fill="black"/>
</g>
</g>
<defs>
<filter id="filter0_iiii_1_121" x="767" y="3" width="16" height="14" filterUnits="userSpaceOnUse" color-interpolation-filters="sRGB">
<feFlood flood-opacity="0" result="BackgroundImageFix"/>
<feBlend mode="normal" in="SourceGraphic" in2="BackgroundImageFix" result="shape"/>
<feColorMatrix in="SourceAlpha" type="matrix" values="0 0 0 0 0 0 0 0 0 0 0 0 0 0 0 0 0 0 127 0" result="hardAlpha"/>
<feOffset dx="2" dy="2"/>
<feComposite in2="hardAlpha" operator="arithmetic" k2="-1" k3="1"/>
<feColorMatrix type="matrix" values="0 0 0 0 0.87451 0 0 0 0 0.87451 0 0 0 0 0.87451 0 0 0 1 0"/>
<feBlend mode="normal" in2="shape" result="effect1_innerShadow_1_121"/>
<feColorMatrix in="SourceAlpha" type="matrix" values="0 0 0 0 0 0 0 0 0 0 0 0 0 0 0 0 0 0 127 0" result="hardAlpha"/>
<feOffset dx="-2" dy="-2"/>
<feComposite in2="hardAlpha" operator="arithmetic" k2="-1" k3="1"/>
<feColorMatrix type="matrix" values="0 0 0 0 0.501961 0 0 0 0 0.501961 0 0 0 0 0.501961 0 0 0 1 0"/>
<feBlend mode="normal" in2="effect1_innerShadow_1_121" result="effect2_innerShadow_1_121"/>
<feColorMatrix in="SourceAlpha" type="matrix" values="0 0 0 0 0 0 0 0 0 0 0 0 0 0 0 0 0 0 127 0" result="hardAlpha"/>
<feOffset dx="1" dy="1"/>
<feComposite in2="hardAlpha" operator="arithmetic" k2="-1" k3="1"/>
<feColorMatrix type="matrix" values="0 0 0 0 1 0 0 0 0 1 0 0 0 0 1 0 0 0 1 0"/>
<feBlend mode="normal" in2="effect2_innerShadow_1_121" result="effect3_innerShadow_1_121"/>
<feColorMatrix in="SourceAlpha" type="matrix" values="0 0 0 0 0 0 0 0 0 0 0 0 0 0 0 0 0 0 127 0" result="hardAlpha"/>
<feOffset dx="-1" dy="-1"/>
<feComposite in2="hardAlpha" operator="arithmetic" k2="-1" k3="1"/>
<feColorMatrix type="matrix" values="0 0 0 0 0.0392157 0 0 0 0 0.0392157 0 0 0 0 0.0392157 0 0 0 1 0"/>
<feBlend mode="normal" in2="effect3_innerShadow_1_121" result="effect4_innerShadow_1_121"/>
</filter>
<filter id="filter1_iiii_1_121" x="783" y="3" width="16" height="14" filterUnits="userSpaceOnUse" color-interpolation-filters="sRGB">
<feFlood flood-opacity="0" result="BackgroundImageFix"/>
<feBlend mode="normal" in="SourceGraphic" in2="BackgroundImageFix" result="shape"/>
<feColorMatrix in="SourceAlpha" type="matrix" values="0 0 0 0 0 0 0 0 0 0 0 0 0 0 0 0 0 0 127 0" result="hardAlpha"/>
<feOffset dx="2" dy="2"/>
<feComposite in2="hardAlpha" operator="arithmetic" k2="-1" k3="1"/>
<feColorMatrix type="matrix" values="0 0 0 0 0.87451 0 0 0 0 0.87451 0 0 0 0 0.87451 0 0 0 1 0"/>
<feBlend mode="normal" in2="shape" result="effect1_innerShadow_1_121"/>
<feColorMatrix in="SourceAlpha" type="matrix" values="0 0 0 0 0 0 0 0 0 0 0 0 0 0 0 0 0 0 127 0" result="hardAlpha"/>
<feOffset dx="-2" dy="-2"/>
<feComposite in2="hardAlpha" operator="arithmetic" k2="-1" k3="1"/>
<feColorMatrix type="matrix" values="0 0 0 0 0.501961 0 0 0 0 0.501961 0 0 0 0 0.501961 0 0 0 1 0"/>
<feBlend mode="normal" in2="effect1_innerShadow_1_121" result="effect2_innerShadow_1_121"/>
<feColorMatrix in="SourceAlpha" type="matrix" values="0 0 0 0 0 0 0 0 0 0 0 0 0 0 0 0 0 0 127 0" result="hardAlpha"/>
<feOffset dx="1" dy="1"/>
<feComposite in2="hardAlpha" operator="arithmetic" k2="-1" k3="1"/>
<feColorMatrix type="matrix" values="0 0 0 0 1 0 0 0 0 1 0 0 0 0 1 0 0 0 1 0"/>
<feBlend mode="normal" in2="effect2_innerShadow_1_121" result="effect3_innerShadow_1_121"/>
<feColorMatrix in="SourceAlpha" type="matrix" values="0 0 0 0 0 0 0 0 0 0 0 0 0 0 0 0 0 0 127 0" result="hardAlpha"/>
<feOffset dx="-1" dy="-1"/>
<feComposite in2="hardAlpha" operator="arithmetic" k2="-1" k3="1"/>
<feColorMatrix type="matrix" values="0 0 0 0 0.0392157 0 0 0 0 0.0392157 0 0 0 0 0.0392157 0 0 0 1 0"/>
<feBlend mode="normal" in2="effect3_innerShadow_1_121" result="effect4_innerShadow_1_121"/>
</filter>
<filter id="filter2_iiii_1_121" x="801" y="3" width="16" height="14" filterUnits="userSpaceOnUse" color-interpolation-filters="sRGB">
<feFlood flood-opacity="0" result="BackgroundImageFix"/>
<feBlend mode="normal" in="SourceGraphic" in2="BackgroundImageFix" result="shape"/>
<feColorMatrix in="SourceAlpha" type="matrix" values="0 0 0 0 0 0 0 0 0 0 0 0 0 0 0 0 0 0 127 0" result="hardAlpha"/>
<feOffset dx="2" dy="2"/>
<feComposite in2="hardAlpha" operator="arithmetic" k2="-1" k3="1"/>
<feColorMatrix type="matrix" values="0 0 0 0 0.87451 0 0 0 0 0.87451 0 0 0 0 0.87451 0 0 0 1 0"/>
<feBlend mode="normal" in2="shape" result="effect1_innerShadow_1_121"/>
<feColorMatrix in="SourceAlpha" type="matrix" values="0 0 0 0 0 0 0 0 0 0 0 0 0 0 0 0 0 0 127 0" result="hardAlpha"/>
<feOffset dx="-2" dy="-2"/>
<feComposite in2="hardAlpha" operator="arithmetic" k2="-1" k3="1"/>
<feColorMatrix type="matrix" values="0 0 0 0 0.501961 0 0 0 0 0.501961 0 0 0 0 0.501961 0 0 0 1 0"/>
<feBlend mode="normal" in2="effect1_innerShadow_1_121" result="effect2_innerShadow_1_121"/>
<feColorMatrix in="SourceAlpha" type="matrix" values="0 0 0 0 0 0 0 0 0 0 0 0 0 0 0 0 0 0 127 0" result="hardAlpha"/>
<feOffset dx="1" dy="1"/>
<feComposite in2="hardAlpha" operator="arithmetic" k2="-1" k3="1"/>
<feColorMatrix type="matrix" values="0 0 0 0 1 0 0 0 0 1 0 0 0 0 1 0 0 0 1 0"/>
<feBlend mode="normal" in2="effect2_innerShadow_1_121" result="effect3_innerShadow_1_121"/>
<feColorMatrix in="SourceAlpha" type="matrix" values="0 0 0 0 0 0 0 0 0 0 0 0 0 0 0 0 0 0 127 0" result="hardAlpha"/>
<feOffset dx="-1" dy="-1"/>
<feComposite in2="hardAlpha" operator="arithmetic" k2="-1" k3="1"/>
<feColorMatrix type="matrix" values="0 0 0 0 0.0392157 0 0 0 0 0.0392157 0 0 0 0 0.0392157 0 0 0 1 0"/>
<feBlend mode="normal" in2="effect3_innerShadow_1_121" result="effect4_innerShadow_1_121"/>
</filter>
<linearGradient id="paint0_linear_1_121" x1="0" y1="10" x2="819" y2="10" gradientUnits="userSpaceOnUse">
<stop stop-color="#000080"/>
<stop offset="1" stop-color="#1084D0"/>
</linearGradient>
<clipPath id="clip0_1_121">
<rect width="6" height="2" fill="white" transform="translate(771 12)"/>
</clipPath>
<clipPath id="clip1_1_121">
<rect width="9" height="9" fill="white" transform="translate(786 5)"/>
</clipPath>
<clipPath id="clip2_1_121">
<rect width="8" height="7" fill="white" transform="translate(805 6)"/>
</clipPath>
</defs>
</svg>
