<svg width="119" height="32" viewBox="0 0 119 32" fill="none" xmlns="http://www.w3.org/2000/svg">
<g filter="url(#filter0_iiii_1_122)">
<rect width="119" height="32" fill="#C0C0C0"/>
<path d="M32.308 14.56H33.122V15.242H33.683V14.56H35.839V15.242H36.51V15.913H37.192V20.808H36.4V16.034H35.718V15.352H33.793V16.034H33.122V20.808H32.308V14.56ZM38.501 19.433H37.808V15.913H38.501V15.242H39.183V14.56H41.339V15.242H42.01V15.913H42.692V18.08H38.622V19.323H39.293V19.994H41.218V19.323H41.9V18.641H42.692V19.433H42.01V20.115H41.339V20.808H39.183V20.115H38.501V19.433ZM41.9 17.277V16.034H41.218V15.352H39.293V16.034H38.622V17.277H41.9ZM43.308 19.994H44.001V18.641H44.683V17.959H45.354V17.398H44.683V16.716H44.001V15.352H43.308V14.56H44.122V15.242H44.793V16.595H45.475V17.277H46.036V16.595H46.718V15.242H47.4V14.56H48.192V15.352H47.51V16.716H46.839V17.398H46.157V17.959H46.839V18.641H47.51V19.994H48.192V20.808H47.4V20.115H46.718V18.751H46.036V18.08H45.475V18.751H44.793V20.115H44.122V20.808H43.308V19.994ZM50.524 15.352H49.149V14.56H50.524V12.514H51.316V14.56H53.351V15.352H51.316V19.994H53.351V20.808H51.195V20.115H50.524V15.352ZM59.808 18.641H60.622V19.994H63.9V18.08H60.501V17.398H59.808V15.242H60.501V14.56H64.01V15.242H64.692V16.716H63.9V15.352H60.622V17.277H64.01V17.959H64.692V20.115H64.01V20.808H60.501V20.115H59.808V18.641ZM67.024 15.352H65.649V14.56H67.024V12.514H67.816V14.56H69.851V15.352H67.816V19.994H69.851V20.808H67.695V20.115H67.024V15.352ZM70.808 17.959H71.501V17.277H74.218V15.352H71.622V16.716H70.808V15.242H71.501V14.56H74.339V15.242H75.01V19.994H75.692V20.808H74.9V20.115H73.657V20.808H71.501V20.115H70.808V17.959ZM73.536 19.994V19.323H74.218V18.08H71.622V19.994H73.536ZM76.308 19.323H77.001V18.751H76.308V17.959H77.001V17.398H76.308V15.242H77.001V14.56H79.839V15.242H80.4V14.56H81.192V15.352H80.51V17.398H79.839V18.08H77.122V18.641H80.51V19.323H81.192V20.808H80.51V21.49H77.001V20.808H76.308V19.323ZM79.718 17.277V15.352H77.122V17.277H79.718ZM80.4 20.676V19.433H77.122V20.676H80.4ZM82.501 19.433H81.808V15.913H82.501V15.242H83.183V14.56H85.339V15.242H86.01V15.913H86.692V18.08H82.622V19.323H83.293V19.994H85.218V19.323H85.9V18.641H86.692V19.433H86.01V20.115H85.339V20.808H83.183V20.115H82.501V19.433ZM85.9 17.277V16.034H85.218V15.352H83.293V16.034H82.622V17.277H85.9Z" fill="#222222"/>
</g>
<defs>
<filter id="filter0_iiii_1_122" x="0" y="0" width="119" height="32" filterUnits="userSpaceOnUse" color-interpolation-filters="sRGB">
<feFlood flood-opacity="0" result="BackgroundImageFix"/>
<feBlend mode="normal" in="SourceGraphic" in2="BackgroundImageFix" result="shape"/>
<feColorMatrix in="SourceAlpha" type="matrix" values="0 0 0 0 0 0 0 0 0 0 0 0 0 0 0 0 0 0 127 0" result="hardAlpha"/>
<feOffset dx="2" dy="2"/>
<feComposite in2="hardAlpha" operator="arithmetic" k2="-1" k3="1"/>
<feColorMatrix type="matrix" values="0 0 0 0 0.87451 0 0 0 0 0.87451 0 0 0 0 0.87451 0 0 0 1 0"/>
<feBlend mode="normal" in2="shape" result="effect1_innerShadow_1_122"/>
<feColorMatrix in="SourceAlpha" type="matrix" values="0 0 0 0 0 0 0 0 0 0 0 0 0 0 0 0 0 0 127 0" result="hardAlpha"/>
<feOffset dx="1" dy="1"/>
<feComposite in2="hardAlpha" operator="arithmetic" k2="-1" k3="1"/>
<feColorMatrix type="matrix" values="0 0 0 0 1 0 0 0 0 1 0 0 0 0 1 0 0 0 1 0"/>
<feBlend mode="normal" in2="effect1_innerShadow_1_122" result="effect2_innerShadow_1_122"/>
<feColorMatrix in="SourceAlpha" type="matrix" values="0 0 0 0 0 0 0 0 0 0 0 0 0 0 0 0 0 0 127 0" result="hardAlpha"/>
<feOffset dx="-1"/>
<feComposite in2="hardAlpha" operator="arithmetic" k2="-1" k3="1"/>
<feColorMatrix type="matrix" values="0 0 0 0 0.0392157 0 0 0 0 0.0392157 0 0 0 0 0.0392157 0 0 0 1 0"/>
<feBlend mode="normal" in2="effect2_innerShadow_1_122" result="effect3_innerShadow_1_122"/>
<feColorMatrix in="SourceAlpha" type="matrix" values="0 0 0 0 0 0 0 0 0 0 0 0 0 0 0 0 0 0 127 0" result="hardAlpha"/>
<feOffset dx="-2"/>
<feComposite in2="hardAlpha" operator="arithmetic" k2="-1" k3="1"/>
<feColorMatrix type="matrix" values="0 0 0 0 0.15 0 0 0 0 0.15 0 0 0 0 0.15 0 0 0 0.5 0"/>
<feBlend mode="normal" in2="effect3_innerShadow_1_122" result="effect4_innerShadow_1_122"/>
</filter>
</defs>
</svg>
