<svg width="1017" height="14" viewBox="0 0 1017 14" fill="none" xmlns="http://www.w3.org/2000/svg">
<g clip-path="url(#clip0_89_75)">
<path d="M612.905 7.41533C595.021 8.67417 577.705 10.9305 559.871 12.299C534.468 14.2497 508.013 14.3675 482.649 12.3445C458.001 10.3833 432.443 5.6 408.088 3.16983C386.489 1.01383 362.908 0.125999 342 2.81983V14L712 14V10.8092C680.406 6.27618 646.136 5.10248 612.905 7.41533Z" fill="black"/>
</g>
<path d="M99.0953 7.41533C116.979 8.67417 134.295 10.9305 152.129 12.299C177.532 14.2497 203.987 14.3675 229.351 12.3445C253.999 10.3833 279.557 5.6 303.912 3.16983C325.511 1.01383 349.092 0.125999 370 2.81983V14L0 14L0 10.8092C31.5936 6.27618 65.8641 5.10248 99.0953 7.41533Z" fill="black"/>
<g clip-path="url(#clip1_89_75)">
<path d="M1189.9 7.41533C1172.02 8.67417 1154.71 10.9305 1136.87 12.299C1111.47 14.2497 1085.01 14.3675 1059.65 12.3445C1035 10.3833 1009.44 5.6 985.088 3.16983C963.489 1.01383 939.908 0.125999 919 2.81983V14L1289 14V10.8092C1257.41 6.27618 1223.14 5.10248 1189.9 7.41533Z" fill="black"/>
</g>
<path d="M676.095 7.41533C693.979 8.67417 711.295 10.9305 729.129 12.299C754.532 14.2497 780.987 14.3675 806.351 12.3445C830.999 10.3833 856.557 5.6 880.912 3.16983C902.511 1.01383 926.092 0.125999 947 2.81983V14L577 14V10.8092C608.594 6.27618 642.864 5.10248 676.095 7.41533Z" fill="black"/>
<defs>
<clipPath id="clip0_89_75">
<rect width="370" height="14" fill="white" transform="matrix(-1 0 0 -1 712 14)"/>
</clipPath>
<clipPath id="clip1_89_75">
<rect width="370" height="14" fill="white" transform="matrix(-1 0 0 -1 1289 14)"/>
</clipPath>
</defs>
</svg>
